<mxfile host="app.diagrams.net" modified="2020-09-10T06:29:02.743Z" agent="5.0 (Macintosh; Intel Mac OS X 10_15_6) AppleWebKit/537.36 (KHTML, like Gecko) Chrome/85.0.4183.83 Safari/537.36" etag="R76v1FxY69gPECPu7Fy_" version="13.6.9" type="github">
  <diagram id="DTDqYx9scpHdhnWcBd3I" name="第 1 页">
    <mxGraphModel dx="1426" dy="808" grid="1" gridSize="10" guides="1" tooltips="1" connect="1" arrows="1" fold="1" page="1" pageScale="1" pageWidth="827" pageHeight="1169" background="#ffffff" math="0" shadow="1">
      <root>
        <mxCell id="0" />
        <mxCell id="1" parent="0" />
        <mxCell id="UBCJK9ZITA0MdVZ5dyBG-1" value="Controller" style="whiteSpace=wrap;html=1;" vertex="1" parent="1">
          <mxGeometry x="340" y="30" width="120" height="60" as="geometry" />
        </mxCell>
        <mxCell id="UBCJK9ZITA0MdVZ5dyBG-2" value="Queue" style="whiteSpace=wrap;html=1;" vertex="1" parent="1">
          <mxGeometry x="620" y="150" width="120" height="60" as="geometry" />
        </mxCell>
        <mxCell id="UBCJK9ZITA0MdVZ5dyBG-3" value="Set" style="whiteSpace=wrap;html=1;" vertex="1" parent="1">
          <mxGeometry x="340" y="150" width="120" height="60" as="geometry" />
        </mxCell>
        <mxCell id="UBCJK9ZITA0MdVZ5dyBG-4" value="List" style="whiteSpace=wrap;html=1;" vertex="1" parent="1">
          <mxGeometry x="90" y="150" width="120" height="60" as="geometry" />
        </mxCell>
        <mxCell id="UBCJK9ZITA0MdVZ5dyBG-5" value="ArrayList" style="whiteSpace=wrap;html=1;" vertex="1" parent="1">
          <mxGeometry x="30" y="250" width="120" height="60" as="geometry" />
        </mxCell>
        <mxCell id="UBCJK9ZITA0MdVZ5dyBG-6" value="Linkedlist" style="whiteSpace=wrap;html=1;" vertex="1" parent="1">
          <mxGeometry x="180" y="250" width="120" height="60" as="geometry" />
        </mxCell>
        <mxCell id="UBCJK9ZITA0MdVZ5dyBG-8" value="HashSet" style="rounded=0;whiteSpace=wrap;html=1;" vertex="1" parent="1">
          <mxGeometry x="320" y="250" width="120" height="60" as="geometry" />
        </mxCell>
        <mxCell id="UBCJK9ZITA0MdVZ5dyBG-9" value="TreeSet" style="rounded=0;whiteSpace=wrap;html=1;" vertex="1" parent="1">
          <mxGeometry x="460" y="250" width="120" height="60" as="geometry" />
        </mxCell>
      </root>
    </mxGraphModel>
  </diagram>
</mxfile>
